HIERARCHY
ROOT Hips
{
  OFFSET 196.326 95.9168 97.7182
  CHANNELS 6 Xposition Yposition Zposition Zrotation Xrotation Yrotation
  JOINT LeftUpLeg
  {
    OFFSET 8.64259 1.95398 -2.38835
    CHANNELS 3 Zrotation Xrotation Yrotation
    JOINT LeftLeg
    {
      OFFSET 43.7702 0 0
      CHANNELS 3 Zrotation Xrotation Yrotation
      JOINT LeftFoot
      {
        OFFSET 40.6238 0 0
        CHANNELS 3 Zrotation Xrotation Yrotation
        JOINT LeftToeBase
        {
          OFFSET 12.7242 0 0
          CHANNELS 3 Zrotation Xrotation Yrotation
          End Site
          {
            OFFSET 0 0 0
          }
        }
      }
    }
  }
  JOINT RightUpLeg
  {
    OFFSET -8.2249 1.95398 -2.59336
    CHANNELS 3 Zrotation Xrotation Yrotation
    JOINT RightLeg
    {
      OFFSET 43.5653 0 0
      CHANNELS 3 Zrotation Xrotation Yrotation
      JOINT RightFoot
      {
        OFFSET 40.6238 0 0
        CHANNELS 3 Zrotation Xrotation Yrotation
        JOINT RightToeBase
        {
          OFFSET 12.7242 0 0
          CHANNELS 3 Zrotation Xrotation Yrotation
          End Site
          {
            OFFSET 0 0 0
          }
        }
      }
    }
  }
  JOINT Spine
  {
    OFFSET 0.165834 0.87714 6.61349
    CHANNELS 3 Zrotation Xrotation Yrotation
    JOINT Spine1
    {
      OFFSET 7.38963 1.71661e-005 0
      CHANNELS 3 Zrotation Xrotation Yrotation
      JOINT Spine2
      {
        OFFSET 11.9445 1.14441e-005 0
        CHANNELS 3 Zrotation Xrotation Yrotation
        JOINT Spine3
        {
          OFFSET 14.7254 4.19617e-005 0
          CHANNELS 3 Zrotation Xrotation Yrotation
          JOINT Spine4
          {
            OFFSET 10.9679 0 0
            CHANNELS 3 Zrotation Xrotation Yrotation
            JOINT RightShoulder
            {
              OFFSET 2.46616 -1.6653 3.69651
              CHANNELS 3 Zrotation Xrotation Yrotation
              JOINT RightArm
              {
                OFFSET 13.0012 0 0
                CHANNELS 3 Zrotation Xrotation Yrotation
                JOINT RightForeArm
                {
                  OFFSET 28.7848 1.52588e-005 0
                  CHANNELS 3 Zrotation Xrotation Yrotation
                  JOINT RightHand
                  {
                    OFFSET 26.5688 1.52588e-005 0
                    CHANNELS 3 Zrotation Xrotation Yrotation
                    End Site
                    {
                      OFFSET 0 0 0
                    }
                  }
                }
              }
            }
            JOINT LeftShoulder
            {
              OFFSET 2.38034 -1.29275 -3.75231
              CHANNELS 3 Zrotation Xrotation Yrotation
              JOINT LeftArm
              {
                OFFSET 16.3182 6.10351e-005 0
                CHANNELS 3 Zrotation Xrotation Yrotation
                JOINT LeftForeArm
                {
                  OFFSET 27.0901 0 0
                  CHANNELS 3 Zrotation Xrotation Yrotation
                  JOINT LeftHand
                  {
                    OFFSET 24.5451 1.52588e-005 0
                    CHANNELS 3 Zrotation Xrotation Yrotation
                    End Site
                    {
                      OFFSET 0 0 0
                    }
                  }
                }
              }
            }
            JOINT Neck
            {
              OFFSET 5.0226 -0.0266342 0
              CHANNELS 3 Zrotation Xrotation Yrotation
              JOINT Head
              {
                OFFSET 6.69363 2.86102e-005 0
                CHANNELS 3 Zrotation Xrotation Yrotation
                End Site
                {
                  OFFSET 0 0 0
                }
              }
            }
          }
        }
      }
    }
  }
}
MOTION
Frames:	15
Frame Time:	0.0416667
4.32402 90.354 -136.393 -67.1962 -85.6497 -70.759 -173.216 12.622 106.679 -18.6221 22.6356 4.41232 50.0548 -1.49173 8.53956 52.6237 23.0761 -9.94295 179.57 22.4719 77.2209 -40.8757 7.88212 -8.26156 71.1718 -4.81688 -2.39685 49.2892 2.98321 14.4422 -0.0497352 7.22074 -89.8254 12.4323 -0.015806 0.350465 0.761306 -0.000368258 0.350822 -21.7735 -0.1204 0.32952 -1.76086 -0.12041 0.329505 79.7196 -51.1403 -115.852 18.9371 -5.56049 11.6079 -4.02922 -11.0162 -36.5256 -8.2978 -0.734842 4.80419 -99.7051 -43.1273 61.7571 -29.3279 1.77746 3.10221 4.92751 3.57488 -33.082 18.0381 1.69607 5.54978 9.22868 1.45206 -0.0152988 0.359235 1.51095 1.3738 
7.07413 90.1673 -136.262 -70.2044 -86.7575 -72.919 -173.305 13.4587 106.172 -21.5685 23.8167 4.06738 52.7527 1.58235 12.0997 58.5797 27.1852 -13.4917 178.74 21.2253 76.1621 -39.2046 7.80007 -8.18916 68.6893 -3.89501 -1.99654 51.5204 3.29132 13.5932 -0.0386751 7.2941 -89.9063 12.2857 -0.0323727 0.190807 0.614692 -0.0239302 0.192042 -21.9204 -0.0882199 0.172259 -1.90772 -0.0882204 0.172257 79.7596 -51.2043 -115.768 18.2661 -4.72393 11.8695 -3.63067 -10.2594 -35.7677 -7.89061 -0.686198 4.56384 -99.6268 -42.8748 61.7729 -29.3092 1.91637 2.3475 6.56795 6.85276 -33.083 15.6983 1.61716 6.33841 9.10046 0.882298 -0.509201 0.628069 1.08021 1.62352 
9.90462 90.1536 -136.204 -76.8933 -86.9637 -79.3393 -172.97 14.2033 104.731 -24.3577 23.2815 3.54535 54.9917 4.28787 15.8361 62.082 28.5411 -17.6976 178.887 19.9635 74.9037 -36.8207 6.90544 -8.95556 66.2245 -3.27713 -1.71606 51.2607 3.27738 13.8243 0.0401384 7.33731 -89.9517 12.1991 0.102687 0.0849471 0.528215 0.106337 0.0803397 -22.0069 0.072411 0.111876 -1.99429 0.0724191 0.111888 79.7792 -51.2315 -115.729 17.7919 -3.8442 12.5253 -4.14845 -10.4341 -35.6023 -8.09116 -0.730727 5.02907 -99.8234 -42.9581 61.503 -29.394 2.65984 1.84129 6.63613 7.6081 -33.0319 14.7822 1.58409 6.69798 8.84565 0.549636 -0.424241 0.360937 0.740354 1.77319 
12.6982 90.4654 -136.358 -90.4173 -88.056 -92.8862 -173.584 15.0872 102.955 -27.4366 22.9759 3.50061 56.525 6.01049 17.0528 62.0535 28.049 -18.9615 178.513 18.1994 73.3059 -34.3838 4.8922 -9.66461 63.0501 -2.26562 -1.17848 50.1152 2.72301 11.1958 0.0224909 7.40082 -89.9497 12.0722 0.0685086 0.0928591 0.401229 0.0725267 0.0897455 -22.1339 0.0374322 0.109154 -2.12126 0.0374352 0.109158 79.389 -51.7322 -116.099 17.2054 -2.37336 13.0851 -4.78007 -10.3418 -35.1322 -7.92553 -0.692314 4.59594 -100.224 -42.9159 60.863 -29.0481 4.11115 1.5345 5.81889 7.53722 -32.6149 15.0408 1.62543 6.80027 8.27446 0.00152257 -0.448426 0.493321 0.219482 1.94842 
15.4077 90.8897 -136.557 -118.598 -88.9128 -121.311 -174.288 15.9451 101.07 -29.845 23.6621 3.24633 56.4169 6.56216 18.2182 61.7311 27.8804 -18.7326 178.465 17.1348 71.8157 -32.5581 4.14139 -10.6536 59.0108 -0.787401 -0.264013 48.2821 2.32476 10.2912 0.0264014 7.48215 -89.905 11.9095 0.09731 0.179104 0.238528 0.105096 0.174651 -22.2965 0.0389761 0.200074 -2.28388 0.0389827 0.200076 79.7173 -52.1704 -115.452 17.3025 -0.690964 12.8273 -5.20546 -9.65495 -34.7422 -7.57123 -0.639117 4.17211 -100.447 -42.7503 60.4468 -28.4648 5.45794 0.976402 5.41424 8.11044 -32.4912 15.2096 1.65523 6.8844 7.88191 -0.491422 -0.41866 0.726313 -0.29885 1.48469 
18.0472 91.4712 -136.631 -143.875 -89.1861 -146.366 -174.2 16.3766 99.7065 -30.7805 22.7629 2.78016 57.3383 7.47693 18.1617 61.9342 26.8962 -21.8911 178.647 16.3687 71.0686 -30.4593 4.06508 -11.4099 55.2514 0.412268 0.593118 42.3401 1.36042 9.31503 0.05679 7.49538 -89.8958 11.8829 0.162024 0.190398 0.211991 0.170248 0.183076 -22.3231 0.0973101 0.230291 -2.31044 0.0973144 0.230296 80.6114 -51.9008 -114.26 18.9415 0.844491 12.4129 -6.23268 -10.0689 -34.8809 -7.61126 -0.679695 4.78928 -100.346 -42.3431 60.4277 -28.2427 6.70235 0.930386 5.06477 8.48954 -32.5821 14.6762 1.54059 6.4806 7.32308 -0.776127 -0.26419 0.576004 -0.613267 1.4946 
20.6889 92.2489 -136.55 -99.5609 -89.3165 -101.556 -174.027 16.1922 98.4466 -29.9195 22.1932 2.3932 58.0676 8.50269 19.0095 61.2733 25.6606 -24.0562 178.687 16.4032 70.8053 -27.6454 6.14759 -11.4107 52.2425 1.08924 1.17415 31.5417 -0.259346 11.2798 0.153453 7.43454 -89.9555 12.0047 0.32611 0.0531825 0.333832 0.328132 0.0387665 -22.2016 0.295049 0.148726 -2.18894 0.295053 0.148726 81.4373 -51.208 -113.312 20.7185 2.70929 12.4291 -7.36763 -9.32227 -36.1703 -5.87326 -0.537869 4.63172 -100.553 -42.5277 60.1866 -27.7382 7.45745 1.20625 4.70356 8.28195 -32.8537 14.3833 1.37398 5.5507 7.21715 -0.922122 0.48173 0.496548 -0.922985 1.26678 
22.9864 92.8886 -136.587 -71.0935 -88.5341 -72.9219 -173.897 15.9026 97.1185 -28.7735 20.9702 2.03124 58.4026 8.89442 19.1358 60.681 25.0854 -24.5086 178.687 17.286 70.6345 -26.6765 6.84081 -10.9671 51.276 1.27892 1.35311 25.8856 -1.11675 10.6011 0.251341 7.35787 -89.9485 12.1581 0.524019 0.0446191 0.487305 0.525474 0.0215013 -22.0486 0.486381 0.200047 -2.03595 0.486382 0.200047 81.6469 -50.7098 -113.186 22.1453 3.4245 12.5418 -7.86197 -8.58326 -37.6307 -4.24731 -0.396559 4.09956 -100.384 -42.5311 60.4497 -27.6297 7.59795 2.09661 5.27702 8.79882 -34.019 13.2919 1.26637 5.4697 7.22401 -0.997261 1.37368 0.199595 -1.2226 0.572919 
24.8057 93.4764 -136.707 -65.2444 -88.215 -67.274 -174.039 15.3014 95.7105 -27.3274 19.8368 1.81578 58.4268 8.90165 18.6539 59.3921 23.9886 -25.0782 179.075 17.8207 71.1919 -27.7554 6.08379 -11.1169 53.1497 1.03536 1.09399 27.3485 -0.886934 10.5529 0.242108 7.32267 -89.8681 12.2281 0.543752 0.202514 0.557305 0.552137 0.178382 -21.9784 0.457753 0.356578 -1.96578 0.457743 0.356569 81.1132 -51.0602 -113.842 22.4577 2.91958 12.383 -8.31745 -8.55653 -39.1859 -2.41115 -0.265495 3.91288 -99.8117 -42.6058 61.3728 -27.2868 7.42297 3.10989 5.74056 8.85195 -35.0267 12.0631 1.1963 5.76597 7.58514 -0.915963 1.82677 0.0546523 -1.27935 -0.0842358 
26.2973 94.0333 -136.921 -74.7756 -88.0043 -76.6166 -174.005 14.4392 94.9991 -26.0275 19.7578 1.63113 58.1893 8.55824 18.7566 58.506 23.0669 -26.0652 179.923 17.6997 72.8909 -29.2494 6.17294 -11.4094 55.9163 0.213294 0.435394 29.5231 -0.600715 11.4093 0.256796 7.3646 -89.8271 12.144 0.592286 0.279445 0.473177 0.604005 0.253094 -22.0625 0.480917 0.444526 -2.04988 0.480906 0.444515 81.1028 -51.1293 -113.832 23.0424 1.79562 11.652 -8.132 -9.27358 -39.9124 -2.4433 -0.259793 2.68877 -99.61 -42.5471 61.6622 -26.9273 6.83993 4.05398 5.90805 8.46938 -35.4062 12.169 1.17441 5.52028 8.34799 -0.871989 1.68502 -0.521525 -1.213 -0.0171237 
27.7868 94.4279 -137.122 -76.2981 -87.7587 -77.3358 -174.132 14.3023 94.8394 -25.7241 18.9367 1.71424 59.0456 8.67167 17.9553 56.6456 21.705 -26.3303 -179.489 17.707 75.208 -30.8528 6.92084 -10.6817 58.4541 -0.825476 -0.295028 34.3977 0.187025 11.5862 0.283176 7.37625 -89.8699 12.1209 0.624501 0.190801 0.450115 0.632296 0.163128 -22.0859 0.538286 0.369673 -2.07323 0.538284 0.369666 81.2188 -51.2325 -113.623 23.5178 0.257468 10.701 -8.91382 -10.272 -41.1473 -1.64582 -0.22923 2.97479 -99.6926 -42.3891 61.4664 -26.6159 6.75303 5.14295 4.80476 6.43944 -35.5474 13.941 1.28505 5.20612 8.61934 -0.812037 1.77238 -0.245744 -1.17967 -0.0715337 
29.0213 94.8118 -137.254 -62.7801 -87.8962 -63.3182 -174.448 14.5129 94.4711 -25.1006 18.5037 1.81688 59.3886 8.44593 17.4814 55.5777 20.5172 -28.0612 -179.506 18.0579 77.4025 -32.3153 8.64164 -9.39315 61.326 -1.95227 -1.01798 37.6985 0.708572 10.4675 0.240594 7.33003 -89.8439 12.2133 0.552193 0.249976 0.542427 0.562663 0.225424 -21.9932 0.451533 0.404377 -1.98056 0.45154 0.404382 81.016 -51.7658 -113.722 23.5411 -1.02877 9.95184 -9.78461 -11.4297 -42.5989 -0.351388 -0.167835 3.29027 -99.3598 -41.7559 61.721 -26.6057 6.14704 5.64824 5.06072 6.72007 -35.0035 14.2795 1.36142 5.5439 8.88586 -0.943756 1.31343 -0.391012 -1.2109 -0.0344554 
30.0995 95.182 -137.476 -57.1951 -88.2077 -57.2584 -174.484 14.3357 94.3003 -24.3632 18.6987 1.78557 59.5414 7.99584 16.7853 54.0843 19.5145 -28.0729 -179.874 18.0982 79.8694 -33.8185 9.87201 -7.97345 63.7439 -2.8254 -1.52271 40.1046 1.04893 9.59816 0.193285 7.34961 -89.8557 12.1742 0.452536 0.237685 0.503334 0.462564 0.217523 -22.0321 0.36018 0.362696 -2.01944 0.360182 0.362695 81.2307 -51.5453 -113.49 24.2181 -2.30914 9.11097 -12.4995 -13.7025 -43.5851 -0.87843 -0.242131 2.24581 -99.5222 -41.4382 61.3292 -26.2672 5.36709 6.01927 5.57734 7.32926 -34.3975 13.5269 1.33082 5.7782 9.07259 -0.859504 1.37895 -0.0184823 -1.15163 -0.144188 
31.1123 95.4541 -137.709 -45.7921 -88.5769 -45.6867 -174.619 14.0539 93.8069 -23.383 18.2831 1.76856 59.5352 7.84452 16.6713 54.6369 18.9871 -31.7773 179.464 18.3312 82.1499 -35.1349 12.3568 -6.4653 65.4367 -3.37764 -1.81354 42.2185 1.39465 10.2358 0.13174 7.31635 -89.7995 12.2405 0.356888 0.360349 0.569565 0.372405 0.344284 -21.9654 0.232094 0.450951 -1.95274 0.232098 0.450954 80.8105 -51.9143 -113.966 24.542 -2.3654 9.36989 -13.0911 -12.3905 -44.9473 1.2625 -0.115193 2.83294 -99.1627 -40.979 61.7023 -25.7978 5.72355 6.40925 5.46695 7.84524 -33.6172 12.9302 1.37421 6.50093 8.80884 -0.895142 0.660768 0.245613 -1.00997 0.165357 
32.0171 95.7044 -137.884 -20.3395 -88.6601 -19.7865 -174.793 14.255 93.6761 -22.9605 18.8053 1.80846 59.6194 7.27833 15.8525 52.7103 18.166 -30.0206 178.72 18.3172 84.6867 -35.6503 14.1758 -4.68386 66.9398 -3.93079 -2.09218 44.4947 1.82521 11.3559 0.0783226 7.29155 -89.8302 12.2905 0.236218 0.312302 0.619535 0.249731 0.301597 -21.9154 0.131436 0.368864 -1.90275 0.131431 0.368851 80.8872 -51.5593 -113.987 24.9558 -3.5188 9.2066 -12.3028 -12.7748 -46.0492 0.0729894 -0.193035 1.85628 -99.2886 -40.9992 61.511 -25.4207 5.49307 6.22806 5.2286 7.83149 -32.4305 12.872 1.32281 6.16138 9.52042 -0.886436 1.04905 -0.612786 -1.09193 0.165123 
